<?xml version="1.0" standalone="no"?>
<!DOCTYPE svg PUBLIC "-//W3C//DTD SVG 20010904//EN"
 "http://www.w3.org/TR/2001/REC-SVG-20010904/DTD/svg10.dtd">
<svg version="1.0" xmlns="http://www.w3.org/2000/svg"
 width="1024.000000pt" height="1024.000000pt" viewBox="0 0 1024.000000 1024.000000"
 preserveAspectRatio="xMidYMid meet">
<metadata>
Created by potrace 1.11, written by Peter Selinger 2001-2013
</metadata>
<g transform="translate(0.000000,1024.000000) scale(0.100000,-0.100000)"
fill="#000000" stroke="none">
<path d="M2435 9048 c-227 -30 -429 -194 -498 -404 -24 -70 -43 -174 -39 -208
3 -27 4 -27 28 19 42 84 96 147 176 208 20 15 41 27 46 27 6 0 12 3 14 8 4 10
87 49 120 56 14 3 34 9 44 13 12 5 15 3 9 -6 -5 -8 2 -7 17 3 19 12 44 15 118
12 52 -2 102 -6 110 -9 8 -3 24 -8 35 -13 11 -4 26 -8 33 -10 46 -9 207 -157
198 -181 -3 -8 -2 -12 3 -9 13 8 84 -102 75 -116 -4 -7 -3 -8 4 -4 14 9 115
-192 107 -213 -3 -8 -3 -12 1 -8 4 4 15 -10 24 -30 l17 -38 13 38 c8 20 17 37
21 37 4 0 9 7 11 15 6 28 93 124 108 119 8 -3 11 -2 7 2 -8 9 45 61 76 74 12
6 33 18 47 27 19 14 22 15 16 3 -6 -12 -5 -12 6 1 16 19 102 44 119 34 8 -6
10 -4 4 5 -6 10 -1 12 18 8 15 -3 24 -2 21 3 -7 11 39 7 55 -5 11 -8 13 -8 8
1 -9 14 52 15 70 1 7 -5 13 -5 17 0 4 6 29 4 65 -5 50 -13 59 -18 56 -34 -2
-11 0 -17 6 -14 5 4 7 11 4 16 -11 16 23 10 41 -8 10 -10 19 -17 21 -15 10 7
23 0 17 -10 -4 -7 -3 -8 4 -4 15 9 63 -23 55 -38 -3 -6 -3 -8 2 -4 11 10 64
-23 71 -44 3 -10 9 -16 14 -13 11 7 32 -30 22 -40 -4 -3 -1 -5 6 -3 18 4 83
-88 75 -108 -3 -9 0 -14 8 -12 23 5 73 -162 79 -262 3 -54 49 106 52 181 1 22
6 42 11 46 5 3 4 9 -3 13 -9 5 -9 13 -2 26 5 10 6 25 2 33 -9 18 -33 124 -33
146 0 8 -5 15 -10 15 -5 0 -7 6 -4 14 3 8 2 16 -2 18 -4 2 -23 32 -41 67 -19
35 -66 96 -105 136 -116 119 -289 190 -448 184 -132 -6 -275 -60 -365 -139
-25 -22 -49 -40 -53 -40 -5 0 -9 -6 -9 -12 0 -7 -11 -23 -23 -34 -12 -12 -35
-47 -51 -78 -30 -60 -32 -63 -33 -43 0 6 -4 32 -8 57 -4 25 -8 50 -9 57 -1 7
-5 16 -9 19 -4 4 -7 17 -7 29 0 11 -4 25 -9 31 -5 5 -11 20 -13 34 -1 14 -10
33 -19 43 -9 9 -22 30 -30 45 -18 34 -33 54 -91 113 -40 42 -146 119 -163 119
-3 0 -24 9 -48 19 -46 21 -80 29 -147 37 -25 3 -52 6 -60 7 -8 2 -42 -1 -75
-5z"/>
<path d="M2375 8740 c-3 -5 -1 -10 4 -10 6 0 11 5 11 10 0 6 -2 10 -4 10 -3 0
-8 -4 -11 -10z"/>
<path d="M2455 8740 c3 -5 8 -10 11 -10 2 0 4 5 4 10 0 6 -5 10 -11 10 -5 0
-7 -4 -4 -10z"/>
<path d="M2490 8740 c0 -5 5 -10 11 -10 5 0 7 5 4 10 -3 6 -8 10 -11 10 -2 0
-4 -4 -4 -10z"/>
<path d="M2575 8739 c-3 -4 2 -6 10 -5 21 3 28 13 10 13 -9 0 -18 -4 -20 -8z"/>
<path d="M2257 8715 c-4 -8 -3 -16 1 -19 4 -3 9 4 9 15 2 23 -3 25 -10 4z"/>
<path d="M2515 8701 c-3 -5 -2 -12 3 -15 5 -3 9 1 9 9 0 17 -3 19 -12 6z"/>
<path d="M2275 8671 c-3 -5 -2 -12 3 -15 5 -3 9 1 9 9 0 17 -3 19 -12 6z"/>
<path d="M3534 8476 c1 -8 5 -18 8 -22 4 -3 5 1 4 10 -1 8 -5 18 -8 22 -4 3
-5 -1 -4 -10z"/>
<path d="M3493 8465 c0 -8 4 -12 9 -9 5 3 6 10 3 15 -9 13 -12 11 -12 -6z"/>
<path d="M3715 8460 c-3 -5 -1 -10 4 -10 6 0 11 5 11 10 0 6 -2 10 -4 10 -3 0
-8 -4 -11 -10z"/>
<path d="M3336 8378 c3 -5 10 -6 15 -3 13 9 11 12 -6 12 -8 0 -12 -4 -9 -9z"/>
<path d="M3294 8356 c1 -8 5 -18 8 -22 4 -3 5 1 4 10 -1 8 -5 18 -8 22 -4 3
-5 -1 -4 -10z"/>
<path d="M3210 8300 c0 -5 5 -10 11 -10 5 0 7 5 4 10 -3 6 -8 10 -11 10 -2 0
-4 -4 -4 -10z"/>
<path d="M4353 8245 c0 -8 4 -12 9 -9 5 3 6 10 3 15 -9 13 -12 11 -12 -6z"/>
<path d="M2528 7905 c-2 -2 -37 -6 -78 -9 -416 -36 -863 -196 -1240 -443 -63
-42 -117 -78 -120 -82 -3 -3 -32 -26 -65 -51 -55 -40 -233 -194 -245 -212 -3
-4 -35 -38 -71 -75 -330 -346 -570 -805 -654 -1253 -45 -238 -53 -344 -50
-640 2 -140 6 -268 9 -285 3 -16 10 -70 17 -120 6 -49 13 -103 15 -119 2 -16
8 -43 12 -60 5 -17 9 -45 8 -63 -1 -17 2 -29 5 -27 4 2 12 -24 19 -59 7 -34
15 -71 17 -82 6 -26 9 -37 15 -55 16 -44 37 -134 32 -141 -3 -5 -1 -9 5 -9 5
0 13 -15 16 -32 4 -18 12 -44 18 -58 5 -14 11 -29 13 -35 1 -5 9 -30 18 -54 9
-24 13 -48 9 -54 -3 -5 -2 -7 4 -4 6 4 16 -13 23 -36 8 -23 17 -46 20 -52 4
-5 14 -28 23 -50 8 -22 26 -62 38 -90 13 -27 24 -52 24 -55 2 -8 111 -220 148
-285 53 -95 142 -236 199 -316 55 -77 86 -121 103 -147 6 -8 18 -24 28 -34 10
-10 15 -24 11 -30 -4 -6 -3 -8 3 -5 14 9 37 -19 27 -34 -4 -7 -3 -9 4 -5 6 3
23 -10 39 -31 15 -21 35 -45 43 -54 96 -106 205 -223 247 -265 28 -29 49 -55
45 -59 -4 -4 -2 -5 4 -3 14 4 126 -101 119 -112 -3 -4 3 -7 13 -6 9 0 16 -5
15 -11 -2 -7 1 -12 6 -10 13 3 142 -104 135 -114 -3 -5 1 -7 8 -4 7 3 29 -10
49 -28 20 -17 46 -38 57 -46 12 -8 19 -18 16 -23 -3 -4 2 -5 10 -2 9 4 18 -1
22 -10 3 -9 12 -16 20 -16 8 0 14 -3 14 -8 0 -4 10 -12 23 -17 12 -6 21 -16
20 -23 -2 -6 3 -9 10 -7 14 6 109 -59 102 -69 -3 -3 -2 -4 1 -1 11 7 65 -25
59 -35 -3 -6 1 -7 9 -4 9 3 16 1 16 -5 0 -6 3 -10 8 -9 8 3 64 -32 74 -47 4
-5 8 -7 8 -3 0 4 19 -3 43 -17 23 -14 92 -51 154 -82 61 -32 109 -62 106 -67
-3 -5 -1 -6 6 -2 7 4 29 0 49 -10 20 -10 42 -19 47 -19 6 -1 9 -7 7 -14 -1 -7
2 -10 8 -6 15 9 101 -25 93 -38 -3 -6 -1 -7 6 -3 14 9 103 -23 96 -34 -3 -5 3
-6 13 -3 21 5 75 -21 64 -32 -4 -5 -2 -5 4 -2 18 10 75 -4 67 -16 -3 -5 -2 -7
4 -4 5 3 27 1 49 -5 21 -6 42 -11 47 -10 4 1 7 -2 7 -7 0 -5 6 -8 13 -8 24 2
87 -15 87 -24 0 -5 7 -6 15 -3 8 4 27 -2 41 -11 15 -9 23 -11 19 -4 -5 7 -4
10 3 5 6 -3 32 -11 59 -16 26 -6 59 -13 73 -16 48 -11 55 -12 78 -13 13 -1 21
-4 19 -8 -3 -5 11 -8 31 -8 21 -1 55 -4 78 -8 23 -4 59 -9 80 -12 21 -2 53 -6
69 -9 17 -3 49 -6 73 -8 23 -1 42 -7 42 -12 0 -8 3 -8 8 -1 4 6 13 10 20 9 6
-1 24 -2 38 -3 15 -1 23 -5 18 -12 -4 -8 -1 -8 12 -2 11 5 26 8 34 7 8 -1 39
-2 68 -3 39 -1 51 -4 46 -13 -6 -10 -4 -10 7 -1 17 16 129 17 129 2 0 -8 4 -8
13 -1 18 15 119 14 111 -1 -4 -8 -2 -7 7 1 7 6 23 12 36 12 13 0 23 -6 23 -12
0 -9 4 -7 10 2 9 17 47 19 70 5 9 -5 11 -4 6 3 -5 9 8 12 46 13 29 0 61 2 71
4 9 2 17 -2 17 -8 0 -9 2 -9 8 -1 4 7 24 14 44 17 30 4 36 2 31 -12 -5 -14 -4
-14 8 1 9 10 35 19 69 23 30 3 66 9 79 12 16 4 22 2 17 -5 -3 -6 -1 -14 5 -18
7 -4 9 -3 6 3 -4 6 0 16 8 23 12 10 15 10 15 -1 0 -11 2 -11 8 -2 4 7 29 14
55 15 26 2 47 7 47 11 0 5 5 5 10 2 6 -4 7 -11 4 -17 -4 -7 -2 -8 5 -4 6 4 9
12 6 17 -5 8 23 13 63 12 6 -1 12 3 12 7 0 4 15 10 33 12 17 3 39 7 47 9 9 2
14 -2 12 -9 -1 -8 2 -11 8 -7 6 3 8 10 5 15 -3 4 5 10 18 14 33 9 39 7 31 -6
-4 -7 2 -5 14 6 13 11 30 16 42 13 11 -3 18 -1 15 3 -7 11 31 23 45 15 5 -3
10 -1 10 5 0 6 6 10 13 8 6 -1 22 3 35 10 12 7 22 10 22 7 0 -3 22 4 50 14 29
11 47 14 43 8 -3 -7 2 -5 13 5 10 9 35 20 54 26 19 5 60 20 90 32 30 12 56 21
57 21 4 -1 74 30 106 46 15 8 34 12 42 9 8 -3 14 0 12 6 -1 6 10 14 26 19 18
5 27 4 28 -4 0 -7 4 -2 9 11 5 12 15 22 22 22 7 0 48 18 91 40 43 22 83 37 89
34 7 -5 8 -2 3 6 -6 10 -4 12 9 7 9 -4 15 -3 12 2 -3 5 11 17 32 26 20 10 53
29 72 42 40 27 55 29 46 7 -3 -9 -2 -12 5 -9 6 4 8 13 5 21 -3 9 2 17 12 21 9
4 37 20 62 37 25 17 48 30 53 28 4 -1 7 2 7 8 0 5 5 10 11 10 5 0 7 -5 3 -12
-4 -7 -3 -8 5 -4 6 4 9 12 6 17 -4 5 2 12 12 16 10 4 20 9 23 13 15 18 138 98
144 93 3 -4 6 -1 6 5 0 6 13 18 29 26 22 12 31 12 40 3 10 -9 11 -9 6 3 -3 10
8 22 37 38 24 12 49 22 56 22 7 0 10 5 7 10 -3 6 1 10 9 10 8 0 21 6 28 13 7
7 17 14 21 14 5 1 20 10 33 22 13 11 24 18 24 13 0 -4 4 -2 8 3 4 6 16 17 26
25 18 13 19 13 12 0 -5 -8 3 -2 16 14 16 19 29 26 38 21 8 -5 11 -4 7 2 -8 13
28 47 42 39 5 -4 13 -1 17 5 5 8 2 10 -7 4 -13 -7 9 15 98 96 17 16 37 29 44
29 7 0 10 3 6 6 -7 7 54 60 65 56 4 -1 7 1 7 5 -4 25 2 35 18 29 10 -4 14 -4
11 0 -11 10 11 44 28 44 8 0 12 5 9 10 -3 6 1 13 9 16 9 3 16 10 16 15 0 15
52 69 62 63 4 -3 5 -10 2 -16 -4 -7 -2 -8 5 -4 9 6 9 11 0 22 -15 18 7 48 29
39 11 -4 12 -2 4 7 -11 14 10 43 22 30 4 -3 4 2 0 13 -6 14 -4 17 9 12 10 -4
14 -2 11 6 -5 14 70 130 78 121 3 -3 5 3 5 13 -2 13 4 17 18 15 16 -2 17 -1 6
7 -13 8 -12 15 4 45 10 19 22 33 26 30 4 -2 7 2 6 9 -1 34 5 47 21 48 9 0 12
3 5 5 -9 4 -9 11 -1 29 6 14 14 23 17 21 3 -2 7 12 8 32 3 52 5 62 13 62 9 0
6 131 -4 160 -5 14 -18 33 -30 43 -24 21 -23 54 2 75 10 7 11 11 5 7 -16 -8
-16 -4 -1 32 6 15 13 39 15 53 2 14 11 45 19 68 8 24 17 60 20 80 3 21 9 41
12 47 3 5 7 25 9 45 4 38 11 75 13 75 1 0 3 18 5 40 2 22 7 58 10 80 4 22 9
55 11 74 3 19 10 42 17 50 10 12 9 13 -2 6 -11 -6 -13 -4 -7 11 4 10 10 30 12
43 3 14 8 29 12 35 3 6 8 20 10 31 4 28 25 75 34 75 4 0 5 7 2 15 -4 8 -1 15
5 15 6 0 10 3 9 8 -4 15 23 52 40 53 10 0 12 3 4 6 -9 3 -7 13 9 34 11 16 25
26 31 23 6 -4 8 -3 5 3 -4 6 14 29 38 52 25 23 45 38 45 34 0 -4 5 0 10 9 12
20 69 50 81 42 5 -3 9 -2 8 3 -3 20 2 27 11 13 8 -13 10 -12 10 3 0 11 10 20
30 24 17 3 30 9 30 13 0 8 49 25 63 22 4 -1 7 3 7 9 0 8 6 7 17 -2 10 -9 14
-9 10 -2 -8 13 67 53 97 53 9 0 16 4 16 9 0 5 8 8 17 7 10 -2 24 3 31 11 7 7
25 16 40 20 15 3 47 17 72 29 42 22 46 22 59 6 12 -15 13 -15 7 4 -8 25 15 39
33 21 9 -9 10 -8 5 7 -6 16 -4 18 11 12 11 -4 16 -4 12 0 -10 10 52 36 66 27
5 -3 7 -1 3 5 -6 10 17 23 38 21 5 0 12 3 15 8 5 8 72 46 213 120 15 8 32 11
38 8 6 -4 9 -1 8 7 -2 8 6 12 22 10 17 -1 21 1 11 7 -9 6 -10 11 -2 15 6 4 11
4 11 1 0 -3 6 -1 12 5 26 22 178 118 178 111 0 -3 4 -1 8 4 21 30 133 104 149
99 14 -5 15 -4 4 4 -11 8 -11 11 1 18 20 12 78 59 140 114 28 25 53 44 55 42
2 -2 14 10 26 25 26 34 38 43 49 37 5 -3 7 -1 6 3 -2 5 17 30 41 56 37 39 47
45 60 34 14 -11 14 -10 2 6 -12 15 -11 21 9 42 13 13 27 22 33 18 6 -3 7 -2 4
3 -7 12 48 76 57 67 4 -4 4 0 0 10 -7 19 5 23 24 7 9 -7 9 -7 2 2 -6 7 -5 19
2 32 11 21 17 29 58 74 11 12 17 22 14 22 -4 0 -1 6 6 14 6 8 19 12 28 9 13
-4 14 -3 3 5 -11 8 -4 24 33 82 26 40 45 75 42 78 -4 3 -6 0 -6 -6 0 -20 -77
-13 -158 14 -73 24 -295 130 -447 212 -216 118 -271 141 -425 182 -48 13 -56
15 -170 34 -72 13 -297 14 -350 2 -13 -3 -41 -8 -60 -11 -48 -7 -148 -36 -235
-68 -131 -48 -228 -108 -322 -203 -34 -34 -65 -59 -69 -55 -4 3 -4 1 -1 -5 8
-15 -22 -56 -35 -48 -7 4 -8 2 -4 -4 4 -7 4 -17 0 -24 -5 -8 -11 -2 -16 17 -4
18 -3 32 3 36 7 4 4 9 -6 13 -10 3 -15 12 -12 20 3 8 3 16 -2 18 -4 2 -23 37
-43 78 -36 76 -122 200 -139 200 -5 0 -9 7 -9 15 0 8 -4 15 -8 15 -5 0 -20 9
-33 21 -64 57 -235 159 -265 159 -8 0 -14 4 -14 10 0 5 -12 13 -27 16 -46 12
-103 40 -96 48 4 4 0 4 -9 1 -9 -4 -32 0 -50 9 -40 18 -362 116 -384 116 -8 0
-12 4 -9 10 3 5 0 8 -7 5 -7 -3 -43 4 -80 14 -38 11 -68 17 -68 14 0 -3 -6 -1
-12 4 -7 6 -30 13 -51 17 -21 4 -66 16 -100 27 -67 22 -85 27 -105 28 -7 1
-11 4 -9 9 3 4 -8 7 -23 8 -33 1 -179 58 -230 89 -19 12 -41 25 -47 29 -10 5
-11 1 -4 -16 15 -41 23 -140 36 -458 3 -74 7 -148 9 -165 2 -16 7 -64 10 -106
4 -42 11 -92 16 -110 12 -42 12 -42 0 -34 -7 4 -7 -1 0 -17 8 -20 17 -64 45
-206 2 -13 7 -32 10 -42 3 -10 7 -27 9 -37 6 -30 75 -214 99 -263 23 -48 96
-178 109 -195 4 -5 19 -25 34 -42 14 -18 23 -33 19 -33 -4 0 4 -10 19 -21 15
-12 25 -23 23 -25 -5 -6 104 -114 115 -114 4 0 8 -7 8 -15 0 -8 3 -14 8 -13
13 5 82 -54 75 -65 -3 -6 -1 -7 6 -3 6 4 17 1 25 -6 7 -7 39 -35 69 -62 31
-26 54 -53 50 -59 -3 -5 -2 -7 4 -4 9 6 35 -20 108 -108 14 -16 25 -34 25 -38
0 -4 9 -20 21 -36 11 -15 22 -34 23 -42 2 -8 5 -21 8 -29 23 -63 29 -153 16
-210 -35 -143 -129 -248 -293 -329 -79 -38 -194 -75 -267 -86 -21 -3 -55 -7
-75 -10 -85 -12 -210 -5 -298 16 -67 17 -125 41 -119 50 3 5 -1 6 -8 4 -8 -3
-23 2 -34 12 -11 10 -26 19 -34 21 -33 7 -162 121 -153 135 3 6 2 7 -4 4 -10
-6 -16 -1 -71 71 -42 53 -83 132 -75 145 4 6 1 7 -7 2 -10 -6 -12 -4 -7 8 4
10 2 16 -6 14 -7 -1 -12 7 -12 18 0 11 -3 23 -8 26 -4 3 -9 15 -12 27 -2 12
-6 26 -9 31 -8 12 -19 80 -20 114 0 15 -3 27 -6 27 -3 0 -7 15 -8 33 -3 44 -9
75 -18 89 -5 7 -3 8 7 3 12 -8 12 -6 0 8 -7 9 -11 28 -9 42 3 13 2 22 -3 20
-4 -3 -11 19 -15 47 -8 56 -10 66 -13 71 -5 6 -14 55 -15 84 0 17 -5 29 -10
26 -5 -3 -7 6 -4 20 3 16 1 24 -5 20 -6 -4 -8 2 -5 15 3 12 2 22 -2 24 -5 2
-11 21 -13 43 -2 22 -7 47 -10 55 -6 17 -24 92 -32 130 -10 50 -23 106 -43
177 -11 40 -17 75 -14 78 4 3 2 9 -3 13 -10 7 -55 124 -58 152 -1 8 -6 18 -11
22 -6 4 -4 13 4 22 11 14 11 16 -2 11 -11 -4 -19 3 -26 22 -5 15 -13 37 -18
47 -6 15 -4 18 7 12 8 -4 6 -1 -5 8 -10 8 -15 20 -10 27 4 7 3 10 -3 6 -11 -7
-46 60 -38 74 4 5 2 9 -3 9 -15 0 -64 99 -56 113 4 7 4 9 -1 5 -8 -8 -19 8
-47 62 -7 14 -15 27 -18 30 -12 11 -80 120 -75 120 3 0 -3 8 -12 19 -37 39
-53 66 -48 79 2 7 1 10 -4 7 -12 -7 -42 35 -34 48 3 6 1 7 -5 3 -12 -7 -55 48
-44 58 4 4 2 6 -4 4 -5 -1 -26 15 -45 37 -18 22 -40 45 -48 51 -9 7 -11 16 -6
25 5 8 5 11 0 7 -4 -4 -14 -3 -22 3 -11 10 -11 15 -1 28 11 14 11 14 -2 4 -13
-10 -25 -2 -70 44 -30 31 -54 60 -52 65 1 4 -2 7 -6 6 -12 -4 -123 93 -117
102 3 4 -3 7 -13 6 -10 0 -16 5 -14 14 2 8 1 12 -3 8 -6 -6 -129 80 -207 145
-14 12 -32 23 -40 25 -7 2 -20 9 -28 16 -57 47 -356 199 -495 251 -343 128
-589 174 -967 180 -103 1 -189 1 -190 0z"/>
<path d="M5215 6481 c-3 -5 -2 -12 3 -15 5 -3 9 1 9 9 0 17 -3 19 -12 6z"/>
<path d="M5310 6206 c0 -2 7 -7 16 -10 8 -3 12 -2 9 4 -6 10 -25 14 -25 6z"/>
<path d="M10137 5875 c-4 -8 -3 -16 1 -19 4 -3 9 4 9 15 2 23 -3 25 -10 4z"/>
<path d="M10073 5865 c0 -8 4 -12 9 -9 5 3 6 10 3 15 -9 13 -12 11 -12 -6z"/>
<path d="M5410 5800 c0 -5 5 -10 11 -10 5 0 7 5 4 10 -3 6 -8 10 -11 10 -2 0
-4 -4 -4 -10z"/>
<path d="M10030 5780 c0 -5 5 -10 11 -10 5 0 7 5 4 10 -3 6 -8 10 -11 10 -2 0
-4 -4 -4 -10z"/>
<path d="M9995 5720 c3 -5 8 -10 11 -10 2 0 4 5 4 10 0 6 -5 10 -11 10 -5 0
-7 -4 -4 -10z"/>
<path d="M5453 5609 c-2 -23 3 -25 10 -4 4 8 3 16 -1 19 -4 3 -9 -4 -9 -15z"/>
<path d="M10075 5621 c-3 -5 -2 -12 3 -15 5 -3 9 1 9 9 0 17 -3 19 -12 6z"/>
<path d="M9890 5579 c0 -5 5 -7 10 -4 6 3 10 8 10 11 0 2 -4 4 -10 4 -5 0 -10
-5 -10 -11z"/>
<path d="M9936 5582 c-2 -4 -1 -14 4 -22 7 -11 9 -9 7 8 -1 24 -3 26 -11 14z"/>
<path d="M9893 5543 c4 -3 1 -13 -6 -22 -11 -14 -10 -14 5 -2 16 12 16 31 1
31 -4 0 -3 -3 0 -7z"/>
<path d="M9810 5480 c0 -5 5 -10 11 -10 5 0 7 5 4 10 -3 6 -8 10 -11 10 -2 0
-4 -4 -4 -10z"/>
<path d="M9593 5345 c0 -8 4 -12 9 -9 5 3 6 10 3 15 -9 13 -12 11 -12 -6z"/>
<path d="M9454 5196 c1 -8 5 -18 8 -22 4 -3 5 1 4 10 -1 8 -5 18 -8 22 -4 3
-5 -1 -4 -10z"/>
<path d="M9246 5118 c3 -5 10 -6 15 -3 13 9 11 12 -6 12 -8 0 -12 -4 -9 -9z"/>
<path d="M9080 5040 c-9 -6 -10 -10 -3 -10 6 0 15 5 18 10 8 12 4 12 -15 0z"/>
<path d="M9174 5016 c1 -8 5 -18 8 -22 4 -3 5 1 4 10 -1 8 -5 18 -8 22 -4 3
-5 -1 -4 -10z"/>
<path d="M9026 4998 c3 -5 10 -6 15 -3 13 9 11 12 -6 12 -8 0 -12 -4 -9 -9z"/>
<path d="M9070 4999 c0 -5 5 -7 10 -4 6 3 10 8 10 11 0 2 -4 4 -10 4 -5 0 -10
-5 -10 -11z"/>
<path d="M9110 4961 c0 -6 4 -13 10 -16 6 -3 7 1 4 9 -7 18 -14 21 -14 7z"/>
<path d="M9015 4940 c-3 -5 -1 -10 4 -10 6 0 11 5 11 10 0 6 -2 10 -4 10 -3 0
-8 -4 -11 -10z"/>
<path d="M9053 4935 c0 -8 4 -12 9 -9 5 3 6 10 3 15 -9 13 -12 11 -12 -6z"/>
<path d="M8915 4931 c-3 -5 -2 -12 3 -15 5 -3 9 1 9 9 0 17 -3 19 -12 6z"/>
<path d="M8966 4902 c-3 -5 1 -9 9 -9 8 0 12 4 9 9 -3 4 -7 8 -9 8 -2 0 -6 -4
-9 -8z"/>
<path d="M5613 4871 c0 -11 5 -18 9 -15 4 3 5 11 1 19 -7 21 -12 19 -10 -4z"/>
<path d="M8773 4825 c0 -8 4 -12 9 -9 5 3 6 10 3 15 -9 13 -12 11 -12 -6z"/>
<path d="M5615 4821 c-3 -5 -2 -12 3 -15 5 -3 9 1 9 9 0 17 -3 19 -12 6z"/>
<path d="M8695 4780 c-3 -5 -1 -10 4 -10 6 0 11 5 11 10 0 6 -2 10 -4 10 -3 0
-8 -4 -11 -10z"/>
<path d="M5640 4760 c-9 -6 -10 -10 -3 -10 6 0 15 5 18 10 8 12 4 12 -15 0z"/>
<path d="M8530 4739 c0 -5 5 -7 10 -4 6 3 10 8 10 11 0 2 -4 4 -10 4 -5 0 -10
-5 -10 -11z"/>
<path d="M8470 4705 c0 -7 30 -13 34 -7 3 4 -4 9 -15 9 -10 1 -19 0 -19 -2z"/>
<path d="M8470 4659 c0 -5 5 -7 10 -4 6 3 10 8 10 11 0 2 -4 4 -10 4 -5 0 -10
-5 -10 -11z"/>
<path d="M8334 4622 c4 -3 14 -7 22 -8 9 -1 13 0 10 4 -4 3 -14 7 -22 8 -9 1
-13 0 -10 -4z"/>
<path d="M8255 4580 c-3 -5 -1 -10 4 -10 6 0 11 5 11 10 0 6 -2 10 -4 10 -3 0
-8 -4 -11 -10z"/>
<path d="M8110 4576 c0 -2 8 -10 18 -17 15 -13 16 -12 3 4 -13 16 -21 21 -21
13z"/>
<path d="M8193 4567 c0 -8 6 -14 14 -14 9 0 10 4 2 14 -6 7 -12 13 -14 13 -1
0 -2 -6 -2 -13z"/>
<path d="M8159 4553 c-13 -16 -12 -17 4 -4 9 7 17 15 17 17 0 8 -8 3 -21 -13z"/>
<path d="M8036 4355 c-9 -26 -7 -32 5 -12 6 10 9 21 6 23 -2 3 -7 -2 -11 -11z"/>
<path d="M7915 4280 c3 -5 8 -10 11 -10 2 0 4 5 4 10 0 6 -5 10 -11 10 -5 0
-7 -4 -4 -10z"/>
<path d="M7950 4281 c0 -6 4 -13 10 -16 6 -3 7 1 4 9 -7 18 -14 21 -14 7z"/>
<path d="M7935 4181 c-3 -5 -2 -12 3 -15 5 -3 9 1 9 9 0 17 -3 19 -12 6z"/>
<path d="M7915 4141 c-3 -5 -2 -12 3 -15 5 -3 9 1 9 9 0 17 -3 19 -12 6z"/>
<path d="M7895 4101 c-3 -5 -2 -12 3 -15 5 -3 9 1 9 9 0 17 -3 19 -12 6z"/>
<path d="M7835 3969 c-4 -6 -5 -12 -2 -15 2 -3 7 2 10 11 7 17 1 20 -8 4z"/>
<path d="M7850 3940 c0 -5 5 -10 11 -10 5 0 7 5 4 10 -3 6 -8 10 -11 10 -2 0
-4 -4 -4 -10z"/>
<path d="M7810 3739 c0 -5 5 -7 10 -4 6 3 10 8 10 11 0 2 -4 4 -10 4 -5 0 -10
-5 -10 -11z"/>
<path d="M7840 3680 c-9 -6 -10 -10 -3 -10 6 0 15 5 18 10 8 12 4 12 -15 0z"/>
<path d="M7795 3620 c-3 -5 -1 -10 4 -10 6 0 11 5 11 10 0 6 -2 10 -4 10 -3 0
-8 -4 -11 -10z"/>
<path d="M7775 3580 c3 -5 8 -10 11 -10 2 0 4 5 4 10 0 6 -5 10 -11 10 -5 0
-7 -4 -4 -10z"/>
<path d="M7730 3499 c0 -5 5 -7 10 -4 6 3 10 8 10 11 0 2 -4 4 -10 4 -5 0 -10
-5 -10 -11z"/>
<path d="M7755 3420 c-3 -5 -1 -10 4 -10 6 0 11 5 11 10 0 6 -2 10 -4 10 -3 0
-8 -4 -11 -10z"/>
<path d="M7835 3380 c-3 -5 -1 -10 4 -10 6 0 11 5 11 10 0 6 -2 10 -4 10 -3 0
-8 -4 -11 -10z"/>
<path d="M7790 3160 c0 -5 5 -10 11 -10 5 0 7 5 4 10 -3 6 -8 10 -11 10 -2 0
-4 -4 -4 -10z"/>
<path d="M7773 3105 c0 -8 4 -12 9 -9 5 3 6 10 3 15 -9 13 -12 11 -12 -6z"/>
<path d="M7715 2979 c-3 -4 2 -6 10 -5 21 3 28 13 10 13 -9 0 -18 -4 -20 -8z"/>
<path d="M7690 2939 c0 -5 5 -7 10 -4 6 3 10 8 10 11 0 2 -4 4 -10 4 -5 0 -10
-5 -10 -11z"/>
<path d="M7695 2911 c-3 -5 -2 -12 3 -15 5 -3 9 1 9 9 0 17 -3 19 -12 6z"/>
<path d="M7635 2880 c-3 -5 -1 -10 4 -10 6 0 11 5 11 10 0 6 -2 10 -4 10 -3 0
-8 -4 -11 -10z"/>
<path d="M7625 2840 c-3 -6 1 -7 9 -4 18 7 21 14 7 14 -6 0 -13 -4 -16 -10z"/>
<path d="M7570 2740 c0 -5 5 -10 11 -10 5 0 7 5 4 10 -3 6 -8 10 -11 10 -2 0
-4 -4 -4 -10z"/>
<path d="M7550 2705 c0 -7 30 -13 34 -7 3 4 -4 9 -15 9 -10 1 -19 0 -19 -2z"/>
<path d="M7516 2627 c3 -10 9 -15 12 -12 3 3 0 11 -7 18 -10 9 -11 8 -5 -6z"/>
<path d="M7450 2579 c0 -5 5 -7 10 -4 6 3 10 8 10 11 0 2 -4 4 -10 4 -5 0 -10
-5 -10 -11z"/>
<path d="M7380 2566 c0 -2 8 -10 18 -17 15 -13 16 -12 3 4 -13 16 -21 21 -21
13z"/>
<path d="M7353 2495 c0 -8 4 -12 9 -9 5 3 6 10 3 15 -9 13 -12 11 -12 -6z"/>
<path d="M7316 2478 c3 -5 10 -6 15 -3 13 9 11 12 -6 12 -8 0 -12 -4 -9 -9z"/>
<path d="M7389 2443 c-13 -16 -12 -17 4 -4 16 13 21 21 13 21 -2 0 -10 -8 -17
-17z"/>
<path d="M7330 2420 c0 -5 5 -10 11 -10 5 0 7 5 4 10 -3 6 -8 10 -11 10 -2 0
-4 -4 -4 -10z"/>
<path d="M7305 2360 c-3 -6 1 -7 9 -4 18 7 21 14 7 14 -6 0 -13 -4 -16 -10z"/>
<path d="M7315 2321 c-3 -5 -2 -12 3 -15 5 -3 9 1 9 9 0 17 -3 19 -12 6z"/>
<path d="M7154 2262 c4 -3 14 -7 22 -8 9 -1 13 0 10 4 -4 3 -14 7 -22 8 -9 1
-13 0 -10 -4z"/>
<path d="M7150 2220 c0 -5 5 -10 11 -10 5 0 7 5 4 10 -3 6 -8 10 -11 10 -2 0
-4 -4 -4 -10z"/>
<path d="M7055 2180 c-3 -5 -1 -10 4 -10 6 0 11 5 11 10 0 6 -2 10 -4 10 -3 0
-8 -4 -11 -10z"/>
<path d="M6906 2118 c3 -5 10 -6 15 -3 13 9 11 12 -6 12 -8 0 -12 -4 -9 -9z"/>
<path d="M6955 2089 c-4 -6 -5 -12 -2 -15 2 -3 7 2 10 11 7 17 1 20 -8 4z"/>
<path d="M6894 2056 c1 -8 5 -18 8 -22 4 -3 5 1 4 10 -1 8 -5 18 -8 22 -4 3
-5 -1 -4 -10z"/>
<path d="M6850 2040 c0 -5 5 -10 11 -10 5 0 7 5 4 10 -3 6 -8 10 -11 10 -2 0
-4 -4 -4 -10z"/>
<path d="M6675 1939 c-3 -4 2 -6 10 -5 21 3 28 13 10 13 -9 0 -18 -4 -20 -8z"/>
<path d="M6635 1900 c-3 -5 -1 -10 4 -10 6 0 11 5 11 10 0 6 -2 10 -4 10 -3 0
-8 -4 -11 -10z"/>
<path d="M6556 1887 c3 -10 9 -15 12 -12 3 3 0 11 -7 18 -10 9 -11 8 -5 -6z"/>
<path d="M6495 1831 c-3 -5 -2 -12 3 -15 5 -3 9 1 9 9 0 17 -3 19 -12 6z"/>
<path d="M6233 1715 c0 -8 4 -12 9 -9 5 3 6 10 3 15 -9 13 -12 11 -12 -6z"/>
<path d="M6310 1720 c0 -5 5 -10 10 -10 6 0 10 5 10 10 0 6 -4 10 -10 10 -5 0
-10 -4 -10 -10z"/>
<path d="M6206 1642 c-3 -5 1 -9 9 -9 8 0 12 4 9 9 -3 4 -7 8 -9 8 -2 0 -6 -4
-9 -8z"/>
<path d="M6020 1620 c-9 -6 -10 -10 -3 -10 6 0 15 5 18 10 8 12 4 12 -15 0z"/>
<path d="M6076 1602 c-3 -5 1 -9 9 -9 8 0 12 4 9 9 -3 4 -7 8 -9 8 -2 0 -6 -4
-9 -8z"/>
<path d="M2396 1522 c-3 -5 1 -9 9 -9 8 0 12 4 9 9 -3 4 -7 8 -9 8 -2 0 -6 -4
-9 -8z"/>
<path d="M5775 1460 c-3 -5 -1 -10 4 -10 6 0 11 5 11 10 0 6 -2 10 -4 10 -3 0
-8 -4 -11 -10z"/>
<path d="M2635 1421 c-3 -5 -2 -12 3 -15 5 -3 9 1 9 9 0 17 -3 19 -12 6z"/>
<path d="M5690 1419 c0 -5 5 -7 10 -4 6 3 10 8 10 11 0 2 -4 4 -10 4 -5 0 -10
-5 -10 -11z"/>
<path d="M5497 1395 c-4 -8 -3 -16 1 -19 4 -3 9 4 9 15 2 23 -3 25 -10 4z"/>
<path d="M5530 1380 c0 -5 5 -10 11 -10 5 0 7 5 4 10 -3 6 -8 10 -11 10 -2 0
-4 -4 -4 -10z"/>
<path d="M2896 1341 c-3 -5 2 -15 12 -22 15 -12 16 -12 5 2 -7 9 -10 19 -6 22
3 4 4 7 0 7 -3 0 -8 -4 -11 -9z"/>
<path d="M5440 1280 c-9 -6 -10 -10 -3 -10 6 0 15 5 18 10 8 12 4 12 -15 0z"/>
<path d="M5146 1242 c-3 -5 1 -9 9 -9 8 0 12 4 9 9 -3 4 -7 8 -9 8 -2 0 -6 -4
-9 -8z"/>
<path d="M3416 1227 c3 -10 9 -15 12 -12 3 3 0 11 -7 18 -10 9 -11 8 -5 -6z"/>
<path d="M5030 1237 c0 -2 6 -10 14 -16 11 -9 16 -9 22 1 4 7 4 10 -1 6 -4 -4
-14 -3 -22 3 -7 6 -13 9 -13 6z"/>
<path d="M4855 1220 c3 -5 8 -10 11 -10 2 0 4 5 4 10 0 6 -5 10 -11 10 -5 0
-7 -4 -4 -10z"/>
<path d="M4890 1219 c0 -5 5 -7 10 -4 6 3 10 8 10 11 0 2 -4 4 -10 4 -5 0 -10
-5 -10 -11z"/>
<path d="M4935 1220 c3 -5 8 -10 11 -10 2 0 4 5 4 10 0 6 -5 10 -11 10 -5 0
-7 -4 -4 -10z"/>
<path d="M4966 1218 c3 -5 10 -6 15 -3 13 9 11 12 -6 12 -8 0 -12 -4 -9 -9z"/>
<path d="M4653 1191 c0 -11 5 -18 9 -15 4 3 5 11 1 19 -7 21 -12 19 -10 -4z"/>
<path d="M4773 1185 c0 -8 4 -12 9 -9 5 3 6 10 3 15 -9 13 -12 11 -12 -6z"/>
<path d="M3650 1180 c0 -5 5 -10 11 -10 5 0 7 5 4 10 -3 6 -8 10 -11 10 -2 0
-4 -4 -4 -10z"/>
<path d="M3690 1179 c0 -5 5 -7 10 -4 6 3 10 8 10 11 0 2 -4 4 -10 4 -5 0 -10
-5 -10 -11z"/>
<path d="M4450 1179 c0 -5 5 -7 10 -4 6 3 10 8 10 11 0 2 -4 4 -10 4 -5 0 -10
-5 -10 -11z"/>
<path d="M4690 1179 c0 -5 5 -7 10 -4 6 3 10 8 10 11 0 2 -4 4 -10 4 -5 0 -10
-5 -10 -11z"/>
<path d="M4559 1178 c-5 -18 -6 -38 -1 -34 7 8 12 36 6 36 -2 0 -4 -1 -5 -2z"/>
<path d="M4016 1142 c-2 -4 -1 -14 4 -22 7 -11 9 -9 7 8 -1 24 -3 26 -11 14z"/>
<path d="M4176 1142 c-2 -4 -1 -14 4 -22 7 -11 9 -9 7 8 -1 24 -3 26 -11 14z"/>
<path d="M4266 1142 c-3 -5 1 -9 9 -9 8 0 12 4 9 9 -3 4 -7 8 -9 8 -2 0 -6 -4
-9 -8z"/>
<path d="M4355 1140 c3 -5 8 -10 11 -10 2 0 4 5 4 10 0 6 -5 10 -11 10 -5 0
-7 -4 -4 -10z"/>
<path d="M4426 1142 c-3 -5 1 -9 9 -9 8 0 12 4 9 9 -3 4 -7 8 -9 8 -2 0 -6 -4
-9 -8z"/>
<path d="M3866 1122 c-3 -5 1 -9 9 -9 8 0 12 4 9 9 -3 4 -7 8 -9 8 -2 0 -6 -4
-9 -8z"/>
<path d="M4630 1121 c0 -6 4 -13 10 -16 6 -3 7 1 4 9 -7 18 -14 21 -14 7z"/>
</g>
</svg>
